<?xml version="1.0" encoding="utf-8"?>
<!-- Generator: Adobe Illustrator 22.1.0, SVG Export Plug-In . SVG Version: 6.00 Build 0)  -->
<svg version="1.1" id="layer_1" xmlns="http://www.w3.org/2000/svg" xmlns:xlink="http://www.w3.org/1999/xlink" x="0px" y="0px"
	 viewBox="0 0 291.1 304.1" style="enable-background:new 0 0 291.1 304.1;" xml:space="preserve">
<style type="text/css">
	.st0{fill:#4AF2D6;}
</style>
<g>
	<g>
		<path class="st0" d="M157.1,268.2c-2-0.8-5.1-1.5-7.6-1.5c-2.9,0-5.2,0.8-5.2,3.4c0,6.2,16.1,2.4,16.1,15.2c0,8.7-7.1,12-15,12
			c-3.7,0-7.3-0.6-10.6-1.6l0.6-7.6c0,0,5.2,1.8,9.6,1.8c3.1,0,5.6-0.9,5.6-3.7c0-6.7-16.1-2.4-16.1-15.2c0-8,6.7-11.3,14.2-11.3
			c4.4,0,8,0.8,10.1,1.6L157.1,268.2z M127.8,268.2c-2.1-0.8-5.1-1.5-7.6-1.5c-2.9,0-5.2,0.8-5.2,3.4c0,6.2,16.1,2.4,16.1,15.2
			c0,8.7-7.1,12-15,12c-3.7,0-7.3-0.6-10.8-1.6l0.7-7.6c0,0,5.3,1.8,9.7,1.8c3,0,5.5-0.9,5.5-3.7c0-6.7-16.1-2.4-16.1-15.2
			c0-8,6.8-11.3,14.2-11.3c4.4,0,8.1,0.8,10.2,1.6L127.8,268.2z M276.1,259.7c7,0,11.1,3.8,11.1,12v24.8h-9.3v-22.9
			c0-3.7-1.1-6.2-5-6.2s-7.4,3.5-7.4,9.7v19.4h-9.1v-22.9c0-3.5-1.1-6.2-5.1-6.2c-4.2,0-7.4,3.8-7.4,10.1v19h-9.4v-36.1
			c6.2-0.8,8.5,1.8,8.8,5.8c2.3-4,6.2-6.5,11.3-6.5c6.5,0,9.1,3.6,10,7C266,263.1,270,259.7,276.1,259.7L276.1,259.7z M86.3,260.5
			c-2,10.7-7.2,27.6-10.5,36.1H66l-6.9-24.1h-0.1L52,296.6h-9.8c-3.1-8.4-8.8-25.8-10.5-36.1H41l6.1,24.8h0.1l7.3-24.8h9.3l7.1,24.6
			h0.1l6.2-24.6H86.3z M26.3,268.2c-2-0.8-5.1-1.5-7.6-1.5c-2.9,0-5.1,0.8-5.1,3.4c0,6.2,16,2.4,16,15.2c0,8.7-7.1,12-15,12
			c-3.7,0-7.3-0.6-10.6-1.6l0.6-7.6c0,0,5.3,1.8,9.7,1.8c3.1,0,5.6-0.9,5.6-3.7c0-6.7-16.1-2.4-16.1-15.2c0-8,6.7-11.3,14.2-11.3
			c4.4,0,7.9,0.8,10.1,1.6L26.3,268.2z M211.4,297.3c-10.3,0-17.4-5.6-17.4-18.2c0-11.3,7.6-19.4,18.5-19.4c10.2,0,16.8,5.7,16.8,18
			C229.3,289.5,222.1,297.3,211.4,297.3L211.4,297.3z M211.7,267.7c-4.2,0-8.1,3.1-8.1,11c0,6.9,2.6,10.7,8,10.7
			c4.6,0,8.1-3.7,8.1-11C219.7,271.4,217.2,267.7,211.7,267.7L211.7,267.7z M90.5,296.6h9.3v-36.1c-4.3-0.4-9.3,0.8-9.3,7.6V296.6z
			 M95.6,256c3.3,0,5.9-2.5,5.9-5.7c0-3.1-2.6-5.5-5.9-5.5c-3,0-5.7,2.4-5.7,5.5C89.8,253.5,92.6,256,95.6,256L95.6,256z M182,297.2
			c-10.7,0-17.7-5.4-17.7-18.1c0-10.8,6-19.2,19.1-19.2c2.8,0,6.4,0.6,8.8,1.5l-2,7.6c-2.1-0.8-4.2-1.3-6.5-1.3
			c-6.7,0-9.5,4.4-9.5,11c0,6.4,2.5,10.7,9.1,10.7c3.1,0,5.2-0.8,7.3-1.6l1.1,7.4C189.8,296.3,186,297.2,182,297.2z"/>
		<g>
			<path class="st0" d="M209.1,126.3c-0.9-1.1-1.9-2.2-3-3.4h-15.3c0.1-0.4,0.3-0.8,0.4-1.2h-56.2v1.2v3.4v1.2h54.1
				c0-0.1,0.1-0.2,0.1-0.3c0.1-0.3,0.2-0.6,0.4-0.9H209.1z"/>
			<path class="st0" d="M217.5,138.2c-0.4-0.8-0.9-1.5-1.4-2.3c-0.2-0.4-0.5-0.7-0.7-1.1h-29.2c0.2-0.4,0.3-0.8,0.5-1.2h-51.6v5.8
				h49.1c0.2-0.4,0.4-0.8,0.6-1.2H217.5z"/>
			<path class="st0" d="M222.7,150c-0.3-1.1-0.7-2.3-1.1-3.4h-41c0.2-0.4,0.4-0.8,0.6-1.2h-46.1v1.2l0,0l0,1.7v2.9h43
				c0,0,0-0.1,0.1-0.1l0.6-1.1H222.7z"/>
			<path class="st0" d="M224.4,161.9c0-1.1-0.1-2.3-0.2-3.4H174c0.2-0.4,0.5-0.8,0.7-1.2h-39.6l0,5.8h36.1l0.1-0.1l0.7-1.1H224.4z"
				/>
			<path class="st0" d="M131.9,16.2c-2.5,0.1-5.4,0.7-7.9,1.6c-1.3,0.5-2.5,1-3.5,1.6h14.5v-3C134.3,16.2,133.2,16.2,131.9,16.2z"/>
			<path class="st0" d="M113.8,27.9c-0.2,1.1-0.3,2.2-0.2,3.4h21.5v-3.4H113.8z"/>
			<path class="st0" d="M179.3,221.3c2.3-1.1,4.6-2.2,6.7-3.4h-51v3.4H179.3z"/>
			<path class="st0" d="M135.1,229.8v3.3c6.4-0.5,13.1-1.6,19.7-3.3H135.1z"/>
			<path class="st0" d="M163.2,175l0.9-1.2h59.1c0.2-1.1,0.5-2.2,0.6-3.4h-57.3l0.3-0.4l0.5-0.8h-32.2v1.2l0,1.5l0,0h0
				c0,0-0.1,0-0.1,0l-0.6-0.1c-0.3-0.1-0.9-0.2-0.9-0.3v0c-8.2-2.6-9.7-9.9-11.2-17.6c-0.8-4-1.7-8.2-3.5-11.6
				c-2.4-4.3-7-7.5-11.4-10.5c-6.5-4.5-13.2-9.1-13.2-17.5c0-9.1,6.1-11.4,12.6-13.8c4.2-1.6,8.5-3.2,11.2-6.7
				c2.1-2.8,3.3-6,4.4-9.1c2.2-6,4.3-11.7,12.7-12.8c0-0.7-0.4-2-0.5-2.3c-0.2-0.4-0.3-0.9-0.5-1.4h8.5l0.5,0.4l2.4,2.1l3.2,2.7
				l1,0.8h-14.5l0,1.7l0,4.1h21.5l2.1,1.6l1,0.8l4.5,3.6h-29.1l0,2.9v1.7l0,1.2h36.3v0l0.9,0.7c0.5,0.4,3.4,2.7,6.6,5.3h-43.8l0,1.2
				h0l0,3.4v1.2h50.8c0.3,0.2,0.5,0.4,0.7,0.6c2.5,2.1,4.8,4.2,6.2,5.4h-57.8v1.2v1.7v2.9h58c0.1-0.4,0.2-0.8,0.3-1.2h4.4
				c-1.1-1.1-2.3-2.2-3.6-3.3c0.8-3.7,1.4-7.5,1.8-11.3c0.5-4.9,0.6-9.6,0.2-14.1c-0.6-7.1-2.3-13.7-5.1-19.7
				c-2.5-5.4-5.9-10.2-10.1-14.4l-1.3-1.2c-2.4-2.2-4.9-4.2-7.6-5.9c-2.6-1.7-5.5-3.2-8.4-4.4c-4.9-2.1-10.4-3.1-15.3-3.4
				c-6.6-0.3-10.1,1.2-13.6,3h-18.9c-0.2-0.5-0.5-0.9-0.7-1.3c-0.2-0.4-0.4-0.9-0.6-1.3l-6.8,5.1l-2.1,1.6
				c-4.7,3.4-9.5,6.9-14.1,10.6c-3.9,3-7.2,5.9-10.2,8.6c-3.7,3.4-6.6,6.4-9.1,9.3c-6.2,7.4-9.5,14.5-10,21.7c-0.1,1.3-0.1,2.7,0,4
				c0.1,1.4,0.3,2.8,0.6,4.2c1,4.8,3,9.2,6.2,13.6c3.4,4.5,7.6,8.4,11.7,12l2.2,1.9l2.4,2.1c4.1,3.6,8.4,7.2,12.4,11.1
				c1.3,1.3,2.6,2.6,3.8,3.9c-1.1,0.9-2,2.1-2.9,3.4h6c2.5,2.8,4.6,5.6,6.5,8.5H95c0,0,0,0,0,0c-0.4,1.1-0.6,2.2-0.9,3.3h19.6
				c0.8,1.3,1.5,2.7,2.1,4c0.7,1.5,1.3,3,1.8,4.5H93.8c0.1,1.1,0.4,2.3,0.7,3.4h24.2c0.8,2.8,1.5,5.7,2.2,8.5H98
				c0.1,0.2,0.2,0.3,0.3,0.5c0.6,1,1.2,1.9,1.8,2.9h21.6c0.6,2.4,1.2,4.8,1.9,7.2c0,0,0.2,0.6,0.4,1.3h-16.5
				c0.1,0.1,0.3,0.2,0.4,0.4c1.1,1,2.3,2,3.5,3h13.7c0.3,0.8,0.6,1.8,0.9,2.5c0.4,1.1,1.6,3.9,2.6,6h-4c0,0,0.1,0,0.1,0.1
				c1.4,0.7,3.3,1.6,5.2,2.5c0.9,1.6,1.9,3.2,3,4c0.6,0.5,1.4,0.8,2.2,1v-3v0c0,0,0.3-0.3,0.6-0.6c0.3-0.3,0.6-0.6,0.6-0.6h62.8
				c1.1-0.8,2.1-1.7,3.1-2.5c0.3-0.3,0.7-0.6,1-0.9h-64l1-1.2h-5.1v-6.1h10.2c0.3-0.4,0.6-0.8,1-1.2h65.1c0.9-1.1,1.8-2.2,2.6-3.4
				h-65c0.3-0.4,0.6-0.8,0.9-1.2h-14.8v-6.1h19.5c0.3-0.4,0.6-0.8,0.9-1.2H219c0.5-1.1,1-2.2,1.5-3.4H158l0.9-1.2h-23.8V175H163.2z
				 M131,62.3c-0.6-1-1.3-2.2-2-3.3c-0.8-1.3-1.7-2.5-2.3-3.5l-0.3-0.5h8.7v7.3l0,0H131z M135.1,43.2v8.5h-11l-0.9-1.3l-0.3-0.5
				l-3.5-5c-0.4-0.5-0.8-1.1-1.1-1.6H135.1z"/>
		</g>
	</g>
</g>
</svg>
